# xmcd
# 
# Track frame offsets:
#     150
#     10638
#     20188
#     30698
#     45663
#     58595
#     72545
#     86518
#     98335
#     130678
#     148963
#     177278
#     188073
#     197838
#     215400
#     227403
#     236608
#     245828
#     256968
#     266873
#     278718
# 
# Disc length: 3872
# 
# Revision: 1
# Processed by: cddbd v1.5.2PL0 Copyright (c) Steve Scherf et al.
# Submitted via: fre:ac v1.0.31
# 
DISCID=2f0f1e15
DTITLE=Buddy Guy - The Complete Chess Studio Sessions
DYEAR=1992
DGENRE=Blues
TTITLE0=First Time I Met The Blues  [1960 Single Version]
TTITLE1=Stop Around
TTITLE2=I Got My Eyes On You
TTITLE3=Broken Hearted Blues
TTITLE4=Let Me Love You Baby  [Single Version]
TTITLE5=I Got A Strange Feeling
TTITLE6=Gully Hully
TTITLE7=Ten Years Ago
TTITLE8=Watch Yourself
TTITLE9=Stone Crazy
TTITLE10=Skippin'
TTITLE11=I Found A True Love
TTITLE12=Hard But It's Fair
TTITLE13=Baby (Baby, Baby, Baby)
TTITLE14=When My Left Eye Jumps
TTITLE15=That's It
TTITLE16=The Treasure Untold
TTITLE17=American Bandstand
TTITLE18=No Lie
TTITLE19=$100 Bill
TTITLE20=My Love Is Real
EXTD=
EXTT0=
EXTT1=
EXTT2=
EXTT3=
EXTT4=
EXTT5=
EXTT6=
EXTT7=
EXTT8=
EXTT9=
EXTT10=
EXTT11=
EXTT12=
EXTT13=
EXTT14=
EXTT15=
EXTT16=
EXTT17=
EXTT18=
EXTT19=
EXTT20=
PLAYORDER=
